# xmcd
#
# Track frame offsets: 
#        150
#        17907
#        38014
#        64248
#        92222
#        112585
#        129743
#        151853
#        170367
#        193454
#
# Disc length: 2867 seconds
#
# Revision: 0
# Processed by: cddbd v1.5.2PL0 Copyright (c) Steve Scherf et al.
# Submitted via: ExactAudioCopy v1.0b3
#
DISCID=800b310a
DTITLE=Phi Nhung, Khanh Hoang - Cay Dang Bo Moi
DYEAR=1997
DGENRE=
TTITLE0=Ly Cai Mon
TTITLE1=Khanh Hoang - Ve que ngoai
TTITLE2=Phi Nhung - Cay dang bo moi
TTITLE3=Khanh Hoang - Luu but ngay xanh
TTITLE4=Phi Nhung - Mua rung
TTITLE5=Khanh Hoang - Hoa su nha nang
TTITLE6=Phi Nhung - Doi mat nguoi xua
TTITLE7=Khanh Hoang - Xin vay tay chao
TTITLE8=Phi Nhung - Mua sau rieng
TTITLE9=Phi Nhung - Dau chan ky niem
EXTD=
EXTT0=
EXTT1=
EXTT2=
EXTT3=
EXTT4=
EXTT5=
EXTT6=
EXTT7=
EXTT8=
EXTT9=
PLAYORDER=
